<svg width="110" height="110" viewBox="0 0 110 110" fill="none" xmlns="http://www.w3.org/2000/svg">
<path d="M54.847 105.624C43.033 105.624 33.4219 96.0128 33.4219 84.1988C33.4219 79.7458 34.7749 75.4768 37.3347 71.8536C41.2181 66.351 47.5492 62.959 54.2698 62.7809C54.6523 62.7709 55.0437 62.7711 55.4225 62.7807C62.1451 62.959 68.4762 66.351 72.3601 71.8547C74.9191 75.4768 76.2721 79.7458 76.2721 84.1988C76.2721 96.0128 66.661 105.624 54.847 105.624ZM54.847 67.0587C54.6917 67.0587 54.5346 67.0606 54.3812 67.0645C49.0078 67.2067 43.9429 69.9211 40.8348 74.3252C38.7884 77.2223 37.7069 80.636 37.7069 84.1988C37.7069 93.6498 45.396 101.339 54.847 101.339C64.2981 101.339 71.9871 93.6498 71.9871 84.1988C71.9871 80.636 70.9056 77.2223 68.8597 74.3263C65.7509 69.9211 60.6862 67.2069 55.3109 67.0643C55.1594 67.0606 55.0023 67.0587 54.847 67.0587Z" fill="white"/>
<path d="M62.2645 96.2256C61.9235 96.2256 61.5813 96.1442 61.2678 95.9796L54.8495 92.6054L48.4312 95.9796C47.7096 96.3588 46.8348 96.2963 46.1749 95.8164C45.5152 95.3371 45.1846 94.5248 45.3224 93.721L46.5484 86.5744L41.356 81.5129C40.7719 80.9437 40.562 80.0922 40.8139 79.3166C41.0661 78.5411 41.7365 77.9756 42.5436 77.8582L49.7193 76.8157L52.9283 70.3134C53.2893 69.5821 54.0341 69.1191 54.8497 69.1191C55.6654 69.1191 56.4101 69.5821 56.7711 70.3134L59.9802 76.8157L67.1559 77.8582C67.9632 77.9756 68.6334 78.5411 68.8856 79.3166C69.1375 80.0922 68.9273 80.9437 68.3435 81.5129L63.1511 86.5744L64.3771 93.721C64.515 94.5248 64.1844 95.3371 63.5246 95.8164C63.1509 96.0874 62.7089 96.2256 62.2645 96.2256ZM54.8495 88.0422C55.1921 88.0422 55.5343 88.1243 55.8464 88.2882L59.4193 90.1665L58.7367 86.1885C58.6176 85.4935 58.8481 84.7843 59.3529 84.292L62.2433 81.4746L58.2488 80.8944C57.5508 80.7928 56.9477 80.3545 56.6355 79.7222L54.8495 76.1027L53.0633 79.7222C52.7511 80.3545 52.148 80.7928 51.45 80.8944L47.4555 81.4746L50.346 84.292C50.8507 84.7843 51.0813 85.4933 50.9621 86.1885L50.2795 90.1665L53.8524 88.2882C54.1648 88.1241 54.5069 88.0422 54.8495 88.0422Z" fill="white"/>
<path d="M39.0863 75.2341C39.0396 75.2341 38.9927 75.2326 38.946 75.2296C38.2015 75.1808 37.5362 74.7484 37.1893 74.0879L8.8139 20.0577C8.54973 19.5547 8.49638 18.9672 8.66521 18.4247C8.83404 17.8822 9.21176 17.4291 9.71461 17.1647L25.8392 8.69749C26.8871 8.14686 28.182 8.55051 28.7322 9.5982L56.7456 62.9382C57.0732 63.5623 57.0729 64.3077 56.7449 64.9316L56.2243 65.9215C55.8633 66.6077 55.1599 67.0454 54.3847 67.066C49.0094 67.2085 43.9445 69.9228 40.8365 74.327C40.4335 74.8982 39.7794 75.2341 39.0863 75.2341ZM13.6037 19.9624L39.4949 69.2623C42.8162 65.8608 47.2101 63.6315 51.9256 62.9764L31.8652 24.7779L25.9345 13.4877L13.6037 19.9624Z" fill="white"/>
<path d="M70.6098 75.2354C69.9167 75.2354 69.2626 74.8995 68.8596 74.3283C65.7515 69.9241 60.6868 67.2098 55.3114 67.0673C54.5363 67.0467 53.8329 66.609 53.4719 65.9228L52.9513 64.9329C52.6232 64.309 52.623 63.5637 52.9506 62.9395L74.0372 22.7867L80.9642 9.59953C81.5129 8.55527 82.8025 8.15141 83.8486 8.69454L83.9022 8.72239L99.9816 17.166C100.485 17.4302 100.862 17.8836 101.031 18.426C101.2 18.9685 101.146 19.556 100.882 20.0591L72.507 74.0892C72.1602 74.7497 71.4947 75.1823 70.7504 75.2309C70.7035 75.2341 70.6566 75.2354 70.6098 75.2354ZM57.7708 62.9777C62.4863 63.6329 66.8802 65.8621 70.2015 69.2636L96.0925 19.9637L83.7617 13.4884L77.8308 24.7792L57.7708 62.9777Z" fill="white"/>
<path d="M75.9334 25.926H33.7602C32.964 25.926 32.2337 25.4845 31.8634 24.7798L27.2399 15.9783C27.0783 15.6709 26.9941 15.3292 26.9941 14.9821V10.4999C26.9941 9.31684 27.9536 8.35742 29.1367 8.35742H82.9137C84.0968 8.35742 85.0562 9.31684 85.0562 10.4999V10.6242C85.0562 11.1525 84.8617 11.6539 84.5221 12.0395L77.8302 24.7798C77.46 25.4845 76.7296 25.926 75.9334 25.926ZM35.0549 21.641H74.6387L79.3655 12.6424H31.2792V14.4535L35.0549 21.641Z" fill="white"/>
</svg>
