<svg width="117" height="117" viewBox="0 0 117 117" fill="none" xmlns="http://www.w3.org/2000/svg">
<g clip-path="url(#clip0_903_5646)">
<path d="M4.60167 81.5987C10.6758 89.1707 22.773 90.0987 29.9317 83.5036L39.5047 75.0383C42.835 77.7252 46.7737 79.6122 50.9624 80.5184C55.108 81.4154 59.4275 81.3333 63.5337 80.2948C63.5335 80.3317 63.5323 80.3684 63.5323 80.4054C63.5323 94.3841 74.9051 105.757 88.8837 105.757C102.862 105.757 114.235 94.3841 114.235 80.4054C114.235 66.4266 102.862 55.054 88.8837 55.054C87.4821 55.054 86.1072 55.1703 84.7668 55.3901C85.5885 53.3991 86.8627 51.5935 88.4458 50.1463C88.4458 50.1463 95.752 43.6045 96.3406 42.9933L114.642 35.2543C115.463 34.9071 116.004 34.1112 116.025 33.2202C116.046 32.3292 115.543 31.5088 114.739 31.1236L97.8564 23.0299C94.27 17.9735 87.8888 15.3838 81.5856 16.8332C79.1033 17.4043 76.8648 18.5265 74.9314 20.1689L61.952 31.2013C61.8155 31.1213 23.41 10.5486 23.41 10.5486C21.7136 9.56849 19.5429 11.3417 20.1708 13.2029L24.0448 26.011C25.3296 30.2593 27.5969 34.0362 30.6423 37.093C30.6466 37.2963 30.6781 37.5009 30.7391 37.7019C32.1668 42.5256 33.719 48.5303 36.9845 52.4231L34.5954 54.4542C33.0775 55.7443 14.1171 66.2496 12.3801 67.2619C11.299 67.8921 10.9332 69.2796 11.5634 70.3608C12.1936 71.4419 13.5807 71.8079 14.6626 71.1775C16.6293 70.0311 35.8093 59.3703 37.5302 57.9075L40.0472 55.7679C42.4776 58.1387 46.1041 59.9967 49.1302 61.5864C50.2116 62.1717 51.6042 61.7726 52.1979 60.6586C52.7887 59.5552 52.3733 58.182 51.2701 57.591C48.0174 55.9 44.2173 53.9443 41.8474 51.1459C39.3612 48.4669 37.6168 45.1457 36.6618 41.6255L45.3415 46.274C46.4449 46.8647 47.8184 46.4496 48.4092 45.3462C48.9999 44.2428 48.5846 42.8696 47.4812 42.2786L39.1149 37.798C33.9679 35.0528 30.0604 30.3255 28.3828 24.6998L26.0933 17.1278L58.7193 34.6005C61.0722 35.7082 62.9579 37.6842 63.7021 40.2388L65.2904 45.409C65.6582 46.6053 66.9261 47.2774 68.1221 46.9098C69.3184 46.5423 69.9903 45.2746 69.623 44.0781L68.0376 38.9175C67.5017 37.1454 66.624 35.5375 65.4683 34.1613L77.8665 23.623C79.2409 22.4552 80.8342 21.6571 82.6017 21.2503C87.1977 20.1923 91.853 22.1602 94.3584 25.943C97.1731 30.1195 96.7321 35.9477 93.2711 39.6573C92.7821 40.1835 85.3879 46.8015 85.3879 46.8015C82.4937 49.4386 80.4213 52.998 79.5683 56.8234C71.6942 59.8634 65.6088 67.1461 64.0212 75.4378C63.8242 75.5033 63.6275 75.5656 63.4313 75.625C55.5012 78.045 47.0114 75.9894 40.9783 70.332C40.1208 69.5783 38.8364 69.5799 37.9809 70.3363L26.9295 80.1089C21.6216 85.0115 12.5934 84.3296 8.07767 78.691L5.78798 75.9542L14.5273 71.2532C15.6295 70.6604 16.0424 69.2862 15.4494 68.1839C14.8565 67.0819 13.4821 66.6686 12.3801 67.2619L1.19251 73.2793C0.592672 73.602 0.169588 74.1774 0.0408721 74.8463C-0.0878435 75.5153 0.0909533 76.2065 0.527861 76.729L4.60167 81.5987ZM100.128 36.471C100.803 34.1405 100.938 31.6974 100.501 29.3238L108.247 33.0376L100.128 36.471ZM109.579 78.1392H107.716C106.464 78.1392 105.449 79.1538 105.449 80.4054C105.449 81.6569 106.464 82.6715 107.716 82.6715H109.579C108.527 92.3444 100.823 100.049 91.1498 101.101V99.0344C91.1498 97.7829 90.135 96.7683 88.8837 96.7683C87.6323 96.7683 86.6175 97.7829 86.6175 99.0344V101.101C76.9444 100.049 69.2402 92.3446 68.1883 82.6715H70.2546C71.5059 82.6715 72.5207 81.6569 72.5207 80.4054C72.5207 79.1538 71.5059 78.1392 70.2546 78.1392H68.1883C69.1186 68.6485 77.1245 60.6226 86.6175 59.7102V61.5734C86.6175 62.825 87.6323 63.8396 88.8837 63.8396C90.135 63.8396 91.1498 62.825 91.1498 61.5734V59.7102C100.823 60.7622 108.527 68.4663 109.579 78.1392Z" fill="white"/>
<path d="M83.2194 30.8868C84.05 32.2104 86.1606 32.2136 86.988 30.8868C88.1095 29.2363 86.6154 26.999 84.6607 27.406C83.119 27.6677 82.3148 29.6116 83.2194 30.8868Z" fill="white"/>
<path d="M88.883 67.2715C87.6317 67.2715 86.6169 68.286 86.6169 69.5376V79.4664L81.4957 84.5874C80.6108 85.4723 80.6108 86.9072 81.4957 87.7923C82.3809 88.6773 83.8155 88.6773 84.7007 87.7923L90.4854 82.0076C90.9103 81.5827 91.1492 81.0062 91.1492 80.4052V69.5378C91.1492 68.286 90.1346 67.2715 88.883 67.2715Z" fill="white"/>
</g>
<defs>
<clipPath id="clip0_903_5646">
<rect width="116.025" height="116.025" fill="white"/>
</clipPath>
</defs>
</svg>
