<svg width="91" height="96" viewBox="0 0 91 96" fill="none" xmlns="http://www.w3.org/2000/svg">
<g filter="url(#filter0_d_903_5607)">
<path d="M24.2996 64.1718L36.548 70.4068C37.5194 70.9012 38.4527 71.4672 39.3402 72.1001L49.0668 79.0356C50.9102 80.35 52.9453 81.3719 55.1005 82.0654L56.2758 82.4436C60.1564 83.6923 64.3076 83.8383 68.2662 82.8652L68.5807 82.7879C71.9925 81.9492 75.1433 80.2781 77.7512 77.9239C80.5855 75.3655 82.6785 72.0909 83.8102 68.4442L84.1894 67.2223C85.0396 64.4827 85.3459 61.6032 85.0909 58.7461L84.6256 53.5321C84.4267 51.3031 83.8888 49.1175 83.0306 47.0507L73.1575 23.2739C72.3638 21.3626 70.9023 19.8051 69.0453 18.8917C67.0857 17.9278 64.7585 18.0965 62.9584 19.333L62.7541 19.4734C61.4675 20.3572 60.78 21.8838 60.971 23.433L61.3559 26.5557C61.4133 27.0216 60.785 27.2238 60.5599 26.8119L58.4243 22.9031C57.3273 20.8951 55.0404 19.8475 52.8034 20.3281C50.9562 20.7249 49.4728 22.0979 48.9347 23.909L48.7879 24.4029C48.4497 25.541 48.4546 26.7536 48.802 27.8889L48.9249 28.2908C49.0413 28.6712 48.5189 28.9049 48.3129 28.5644L46.4785 25.5324C45.7568 24.3395 44.5934 23.4797 43.2413 23.1397C42.7389 23.0134 42.2193 22.9691 41.7028 23.0085L41.6234 23.0145C40.8591 23.0728 40.1164 23.2962 39.4468 23.6692L38.7286 24.0693C37.4196 24.7948 36.6127 26.1786 36.6261 27.6752L36.6481 30.1385C36.6496 30.3021 36.6739 30.4646 36.7205 30.6214L37.0196 31.6279C37.1173 31.957 36.6499 32.1377 36.5009 31.8284L23.9601 5.7984C23.3938 4.62284 22.5353 3.61224 21.4668 2.86325L20.9359 2.49113C20.0543 1.87321 19.0102 1.52882 17.9341 1.50101C16.1741 1.45552 14.4996 2.25893 13.4338 3.6602L13.2589 3.89015C12.651 4.68936 12.252 5.62751 12.0978 6.61973L12.0254 7.08591C11.7675 8.74606 12.0454 10.4452 12.8187 11.9367L33.2308 51.3077C33.6619 52.1391 32.816 53.0538 31.9534 52.689L15.9065 45.9003C14.6286 45.3597 13.207 45.2602 11.8663 45.6175L11.3133 45.7649C9.66117 46.2052 8.33425 47.435 7.76985 49.049C6.7001 52.108 8.02056 55.4901 10.88 57.015L24.2996 64.1718Z" fill="#EE1520"/>
<path d="M24.2996 64.1718L36.548 70.4068C37.5194 70.9012 38.4527 71.4672 39.3402 72.1001L49.0668 79.0356C50.9102 80.35 52.9453 81.3719 55.1005 82.0654L56.2758 82.4436C60.1564 83.6923 64.3076 83.8383 68.2662 82.8652L68.5807 82.7879C71.9925 81.9492 75.1433 80.2781 77.7512 77.9239C80.5855 75.3655 82.6785 72.0909 83.8102 68.4442L84.1894 67.2223C85.0396 64.4827 85.3459 61.6032 85.0909 58.7461L84.6256 53.5321C84.4267 51.3031 83.8888 49.1175 83.0306 47.0507L73.1575 23.2739C72.3638 21.3626 70.9023 19.8051 69.0453 18.8917C67.0857 17.9278 64.7585 18.0965 62.9584 19.333L62.7541 19.4734C61.4675 20.3572 60.78 21.8838 60.971 23.433L61.3559 26.5557C61.4133 27.0216 60.785 27.2238 60.5599 26.8119L58.4243 22.9031C57.3273 20.8951 55.0404 19.8475 52.8034 20.3281C50.9562 20.7249 49.4728 22.0979 48.9347 23.909L48.7879 24.4029C48.4497 25.541 48.4546 26.7536 48.802 27.8889L48.9249 28.2908C49.0413 28.6712 48.5189 28.9049 48.3129 28.5644L46.4785 25.5324C45.7568 24.3395 44.5934 23.4797 43.2413 23.1397C42.7389 23.0134 42.2193 22.9691 41.7028 23.0085L41.6234 23.0145C40.8591 23.0728 40.1164 23.2962 39.4468 23.6692L38.7286 24.0693C37.4196 24.7948 36.6127 26.1786 36.6261 27.6752L36.6481 30.1385C36.6496 30.3021 36.6739 30.4646 36.7205 30.6214L37.0196 31.6279C37.1173 31.957 36.6499 32.1377 36.5009 31.8284L23.9601 5.7984C23.3938 4.62284 22.5353 3.61224 21.4668 2.86325L20.9359 2.49113C20.0543 1.87321 19.0102 1.52882 17.9341 1.50101C16.1741 1.45552 14.4996 2.25893 13.4338 3.6602L13.2589 3.89015C12.651 4.68936 12.252 5.62751 12.0978 6.61973L12.0254 7.08591C11.7675 8.74606 12.0454 10.4452 12.8187 11.9367L33.2308 51.3077C33.6619 52.1391 32.816 53.0538 31.9534 52.689L15.9065 45.9003C14.6286 45.3597 13.207 45.2602 11.8663 45.6175L11.3133 45.7649C9.66117 46.2052 8.33425 47.435 7.76985 49.049C6.7001 52.108 8.02056 55.4901 10.88 57.015L24.2996 64.1718Z" stroke="white" stroke-width="3" stroke-linecap="round"/>
</g>
<defs>
<filter id="filter0_d_903_5607" x="0.00039053" y="0" width="90.5773" height="95.902" filterUnits="userSpaceOnUse" color-interpolation-filters="sRGB">
<feFlood flood-opacity="0" result="BackgroundImageFix"/>
<feColorMatrix in="SourceAlpha" type="matrix" values="0 0 0 0 0 0 0 0 0 0 0 0 0 0 0 0 0 0 127 0" result="hardAlpha"/>
<feOffset dx="-1" dy="6"/>
<feGaussianBlur stdDeviation="2.45"/>
<feComposite in2="hardAlpha" operator="out"/>
<feColorMatrix type="matrix" values="0 0 0 0 0.560784 0 0 0 0 0 0 0 0 0 0.0784314 0 0 0 1 0"/>
<feBlend mode="normal" in2="BackgroundImageFix" result="effect1_dropShadow_903_5607"/>
<feBlend mode="normal" in="SourceGraphic" in2="effect1_dropShadow_903_5607" result="shape"/>
</filter>
</defs>
</svg>
