<svg width="131" height="133" viewBox="0 0 131 133" fill="none" xmlns="http://www.w3.org/2000/svg">
<path d="M53.1328 110.061H57.2201V128.75H53.1328V110.061Z" fill="white"/>
<path d="M73.5703 110.061H77.6576V128.75H73.5703V110.061Z" fill="white"/>
<path d="M16.3496 103.83H20.4369V115.011H16.3496V103.83Z" fill="white"/>
<path d="M36.7832 103.83H40.8705V122.519H36.7832V103.83Z" fill="white"/>
<path d="M90.941 84.1032C90.9421 85.9381 91.3789 87.7457 92.2143 89.3724C93.0496 90.9992 94.2589 92.3972 95.7394 93.4478H89.9191C87.9059 93.4544 85.9662 94.2173 84.4733 95.5897C82.9804 96.9622 82.0398 98.8472 81.8325 100.882C80.5748 100.101 79.1311 99.6849 77.6574 99.6776H71.8371C73.7975 98.2859 75.2699 96.2951 76.0403 93.9947C76.8108 91.6943 76.8391 89.2042 76.1212 86.8863C75.4032 84.5684 73.9765 82.5436 72.0483 81.1062C70.1202 79.6688 67.7911 78.8938 65.3997 78.8938C63.0083 78.8938 60.6792 79.6688 58.7511 81.1062C56.8229 82.5436 55.3961 84.5684 54.6782 86.8863C53.9603 89.2042 53.9886 91.6943 54.7591 93.9947C55.5295 96.2951 57.0019 98.2859 58.9623 99.6776H53.1338C51.6601 99.6849 50.2164 100.101 48.9587 100.882C48.7514 98.8472 47.8108 96.9622 46.3179 95.5897C44.825 94.2173 42.8853 93.4544 40.8721 93.4478H35.0518C37.0122 92.0561 38.4846 90.0654 39.255 87.765C40.0255 85.4645 40.0538 82.9744 39.3359 80.6565C38.6179 78.3386 37.1912 76.3138 35.263 74.8765C33.3349 73.4391 31.0058 72.6641 28.6144 72.6641C26.223 72.6641 23.8939 73.4391 21.9658 74.8765C20.0376 76.3138 18.6108 78.3386 17.8929 80.6565C17.175 82.9744 17.2033 85.4645 17.9738 87.765C18.7442 90.0654 20.2166 92.0561 22.177 93.4478H16.3485C14.1805 93.4478 12.1013 94.323 10.5683 95.8807C9.03527 97.4384 8.17403 99.5512 8.17403 101.754L8.17383 107.203H12.2611L12.2613 101.754C12.2613 100.653 12.6919 99.5963 13.4584 98.8174C14.2249 98.0386 15.2645 97.601 16.3485 97.601H40.8721C41.9561 97.601 42.9957 98.0386 43.7622 98.8174C44.5287 99.5963 44.9593 100.653 44.9593 101.754V128.75H49.0466V107.984C49.0466 106.882 49.4772 105.826 50.2437 105.047C51.0102 104.268 52.0498 103.831 53.1338 103.831H77.6574C78.7414 103.831 79.781 104.268 80.5475 105.047C81.314 105.826 81.7446 106.882 81.7446 107.984V128.75H85.8319V101.754C85.8319 100.653 86.2625 99.5963 87.029 98.8174C87.7955 98.0386 88.8351 97.601 89.9191 97.601H114.443C115.527 97.601 116.566 98.0386 117.333 98.8174C118.099 99.5963 118.53 100.653 118.53 101.754V106.903H122.617V101.754C122.617 99.5512 121.756 97.4384 120.223 95.8807C118.69 94.323 116.611 93.4478 114.443 93.4478H108.622C110.206 92.3225 111.477 90.8014 112.314 89.0313C113.15 87.2612 113.523 85.3019 113.397 83.3426C113.271 81.3832 112.65 79.49 111.593 77.8457C110.537 76.2014 109.082 74.8616 107.367 73.9556C105.653 73.0495 103.738 72.6079 101.806 72.6733C99.8751 72.7387 97.9931 73.309 96.3419 74.329C94.6907 75.349 93.3263 76.7844 92.3802 78.4965C91.4341 80.2086 90.9384 82.1396 90.941 84.1032ZM28.6103 91.3712C27.1956 91.3712 25.8127 90.945 24.6365 90.1463C23.4602 89.3477 22.5434 88.2126 22.0021 86.8845C21.4607 85.5565 21.3191 84.0951 21.595 82.6852C21.871 81.2754 22.5523 79.9803 23.5526 78.9639C24.5529 77.9474 25.8274 77.2552 27.2149 76.9748C28.6024 76.6943 30.0405 76.8383 31.3475 77.3884C32.6545 77.9385 33.7716 78.87 34.5576 80.0652C35.3435 81.2605 35.763 82.6657 35.763 84.1032C35.763 86.0308 35.0094 87.8794 33.668 89.2425C32.3266 90.6055 30.5073 91.3712 28.6103 91.3712ZM65.3956 97.601C63.9809 97.601 62.598 97.1747 61.4218 96.3761C60.2455 95.5775 59.3287 94.4424 58.7874 93.1143C58.246 91.7862 58.1044 90.3249 58.3803 88.915C58.6563 87.5051 59.3376 86.2101 60.3379 85.1936C61.3382 84.1772 62.6127 83.485 64.0002 83.2045C65.3877 82.9241 66.8258 83.068 68.1328 83.6181C69.4398 84.1682 70.5569 85.0998 71.3429 86.295C72.1288 87.4902 72.5483 88.8955 72.5483 90.3329C72.5483 92.2606 71.7947 94.1092 70.4533 95.4722C69.1119 96.8353 67.2926 97.601 65.3956 97.601ZM102.181 76.8351C103.596 76.8351 104.978 77.2614 106.155 78.06C107.331 78.8586 108.248 79.9937 108.789 81.3218C109.331 82.6499 109.472 84.1112 109.196 85.5211C108.92 86.931 108.239 88.226 107.239 89.2425C106.238 90.2589 104.964 90.9511 103.576 91.2316C102.189 91.512 100.751 91.3681 99.4437 90.818C98.1367 90.2679 97.0196 89.3363 96.2337 88.1411C95.4477 86.9459 95.0282 85.5407 95.0282 84.1032C95.0282 82.1756 95.7818 80.3269 97.1232 78.9639C98.4646 77.6008 100.284 76.8351 102.181 76.8351Z" fill="white"/>
<path d="M89.9199 103.83H94.0072V122.519H89.9199V103.83Z" fill="white"/>
<path d="M110.355 103.83H114.443V113.81H110.355V103.83Z" fill="white"/>
<path d="M94.0068 4.1543H36.7852C35.1592 4.1543 33.5998 4.81065 32.45 5.97895C31.3002 7.14726 30.6543 8.73183 30.6543 10.3841V56.069C30.6543 57.7213 31.3002 59.3059 32.45 60.4742C33.5998 61.6425 35.1592 62.2988 36.7852 62.2988H60.0458L63.5669 69.4568C63.7364 69.8024 63.9974 70.0931 64.3205 70.2963C64.6436 70.4995 65.016 70.6071 65.396 70.6071C65.7759 70.6071 66.1484 70.4995 66.4715 70.2963C66.7946 70.0931 67.0555 69.8024 67.225 69.4568L70.7462 62.2988H94.0068C95.6328 62.2988 97.1922 61.6425 98.3419 60.4742C99.4917 59.3059 100.138 57.7213 100.138 56.069V10.3841C100.138 8.73183 99.4917 7.14726 98.3419 5.97895C97.1922 4.81065 95.6328 4.1543 94.0068 4.1543ZM96.0504 56.069C96.0504 56.6198 95.8351 57.148 95.4518 57.5374C95.0686 57.9269 94.5488 58.1456 94.0068 58.1456H69.4832C69.1017 58.1435 68.7272 58.25 68.4022 58.4529C68.0771 58.6559 67.8145 58.9472 67.644 59.294L65.396 63.8853L63.148 59.294C62.9774 58.9472 62.7148 58.6559 62.3897 58.4529C62.0647 58.25 61.6902 58.1435 61.3087 58.1456H36.7852C36.2432 58.1456 35.7234 57.9269 35.3401 57.5374C34.9569 57.148 34.7416 56.6198 34.7416 56.069V10.3841C34.7416 9.83332 34.9569 9.30513 35.3401 8.9157C35.7234 8.52626 36.2432 8.30748 36.7852 8.30748H94.0068C94.5488 8.30748 95.0686 8.52626 95.4518 8.9157C95.8351 9.30513 96.0504 9.83332 96.0504 10.3841V56.069Z" fill="white"/>
<path d="M68.2922 16.3909L65.3944 19.3355L62.4965 16.3909C61.3691 15.1853 60.0157 14.2212 58.5158 13.5555C57.016 12.8898 55.4003 12.5359 53.7637 12.5147C52.1272 12.4935 50.5031 12.8054 48.987 13.4321C47.471 14.0588 46.0938 14.9875 44.9366 16.1635C43.7794 17.3395 42.8655 18.7391 42.249 20.2796C41.6325 21.8202 41.3257 23.4705 41.3467 25.1335C41.3678 26.7964 41.7162 28.4382 42.3716 29.9621C43.0269 31.486 43.9758 32.8612 45.1624 34.0066L63.9638 53.1112C64.347 53.5005 64.8668 53.7192 65.4087 53.7192C65.9506 53.7192 66.4703 53.5005 66.8535 53.1112L85.6549 34.0066C87.8765 31.6544 89.1023 28.511 89.0693 25.2509C89.0362 21.9908 87.7469 18.8738 85.478 16.5685C83.2091 14.2633 80.1414 12.9536 76.9331 12.9204C73.7247 12.8872 70.6314 14.1331 68.3167 16.3909H68.2922ZM82.7407 31.0703L65.3944 48.6985L48.048 31.0703C46.5705 29.5015 45.7563 27.407 45.7799 25.2357C45.8034 23.0643 46.6629 20.9886 48.1741 19.4533C49.6854 17.9179 51.7283 17.045 53.8652 17.0214C56.0021 16.9978 58.0631 17.8255 59.6068 19.3272L63.9495 23.74C64.3327 24.1293 64.8525 24.348 65.3944 24.348C65.9362 24.348 66.456 24.1293 66.8392 23.74L71.1819 19.3272C72.7256 17.8255 74.7866 16.9978 76.9235 17.0214C79.0605 17.045 81.1033 17.9179 82.6146 19.4533C84.1258 20.9886 84.9853 23.0643 85.0088 25.2357C85.0324 27.407 84.2182 29.5015 82.7407 31.0703Z" fill="white"/>
</svg>
