<svg width="106" height="104" viewBox="0 0 106 104" fill="none" xmlns="http://www.w3.org/2000/svg">
<g clip-path="url(#clip0_903_5653)">
<path d="M57.1339 0C36.7768 0 20.2168 16.2306 20.2168 36.1788C20.2168 56.127 36.7768 72.3576 57.1339 72.3576C77.4911 72.3576 94.0511 56.127 94.0511 36.1788C94.0511 16.2306 77.4911 0 57.1339 0ZM57.1339 68.912C38.7157 68.912 23.7328 54.2284 23.7328 36.1788C23.7328 18.1292 38.716 3.44567 57.1339 3.44567C75.5519 3.44567 90.5353 18.129 90.5353 36.1788C90.5353 54.2286 75.5521 68.912 57.1339 68.912Z" fill="white"/>
<path d="M63.6307 36.5875C63.4689 35.3971 62.7287 34.3374 61.6476 33.7517C60.5699 33.166 59.3166 33.116 58.2126 33.6104V33.6122C55.3665 34.8837 51.9665 33.8 50.4723 31.1366C48.2538 27.1776 44.5163 26.2285 44.4547 26.2164C39.6537 24.7555 37.5142 23.7252 36.5738 23.1393C36.8058 23.0636 37.0977 22.979 37.4615 22.8965C38.6939 22.6104 40.0228 22.4967 41.4134 22.5708C48.4559 22.8896 52.0139 17.995 52.9228 15.3403C54.2044 11.5932 50.7482 4.90013 49.2029 2.19702L48.5261 1.01172L47.1918 1.38219C34.5485 4.87772 24.66 14.7391 21.3832 27.119L21.0527 28.3629L22.1743 29.0261C25.4177 30.9487 28.6875 30.8247 29.3572 30.773C31.1046 30.7868 32.467 31.2967 33.5217 32.3357C35.8896 34.6649 36.127 39.0615 36.12 40.8429C36.113 42.6571 36.2817 44.2834 36.6385 45.8167C38.7709 54.9614 45.0785 55.74 47.1634 55.74C47.3725 55.74 47.5396 55.7332 47.6555 55.7229C50.6229 55.6989 53.2862 54.0862 54.6189 51.4969C55.3731 50.0326 56.5457 48.7663 58.0066 47.836C63.7326 44.1921 63.9875 39.2234 63.6307 36.5875ZM56.0925 44.9466C54.1113 46.2076 52.5168 47.9356 51.4832 49.9444C50.7414 51.3828 49.2523 52.277 47.5946 52.277L47.3467 52.2942C47.1288 52.3303 41.9111 52.9574 40.0688 45.0481C39.7717 43.775 39.631 42.4035 39.638 40.8548C39.6485 38.1087 39.1932 33.0316 36.0149 29.9031C34.2764 28.1941 32.0137 27.3276 29.2872 27.3276L29.1043 27.3379C29.0814 27.3413 27.2479 27.4998 25.1664 26.6591C28.3307 16.5204 36.4506 8.42838 46.8016 5.09819C48.6738 8.65227 50.1312 12.6544 49.5863 14.2428C49.5704 14.2945 47.7369 19.4611 41.591 19.1288C39.8646 19.0494 38.2068 19.1823 36.6529 19.5423C35.6315 19.7783 32.5199 20.4966 32.4357 22.8569C32.3636 24.8778 34.1742 26.6952 43.4933 29.5294C43.5918 29.5552 45.9368 30.1995 47.3906 32.7958C49.7639 37.0339 55.1591 38.7721 59.6734 36.7444C59.7579 36.7098 59.851 36.7151 59.9459 36.7668C60.0005 36.7944 60.1235 36.8788 60.1464 37.0407C60.5877 40.2934 59.2235 42.9533 56.0925 44.9466Z" fill="white"/>
<path d="M92.7816 26.6634L92.3807 25.1939L90.8443 25.399C83.2305 26.4189 79.6531 25.1337 78.4682 24.5307C76.6258 23.5969 74.6042 23.5073 72.9287 24.2963C70.6346 25.3661 68.0663 28.1122 68.866 35.2034C68.9029 35.4188 69.8223 40.5131 75.548 43.3436C77.3217 44.2207 78.2586 46.1311 77.8262 47.9899C76.5218 53.6011 77.7945 58.1872 81.5109 61.2538L82.782 62.303L83.9229 61.1195C90.452 54.3402 94.0488 45.4611 94.0488 36.1147C94.049 32.9259 93.6219 29.7455 92.7816 26.6634ZM82.5871 57.4154C80.8661 55.2671 80.4178 52.3641 81.2582 48.7565C82.0492 45.3488 80.3546 41.8585 77.134 40.2666C73.0556 38.2491 72.3647 34.7726 72.3523 34.733C72.0412 31.98 72.1537 28.474 74.446 27.4042C74.7256 27.2733 75.042 27.2077 75.3759 27.2077C75.8471 27.2077 76.3551 27.3369 76.8545 27.5901C78.5738 28.4619 82.4658 29.7419 89.7438 28.9977C90.2676 31.3372 90.533 33.7215 90.533 36.1145C90.5332 43.9741 87.7238 51.4718 82.5871 57.4154Z" fill="white"/>
<path d="M80.7262 8.35311C78.0823 6.19793 75.1412 4.41483 71.9804 3.05368L70.9837 2.62305L69.3876 3.92888C67.5293 5.35362 61.8704 9.68639 64.474 14.6085L64.7078 14.9497C65.708 16.0746 67.8458 17.5476 70.5037 17.5476C71.7835 17.5476 73.1829 17.2048 74.6314 16.3175C75.5543 15.7542 76.3771 14.979 77.2191 13.8797C77.655 13.3111 78.4813 12.4325 79.8261 11.5349L82.6759 9.943L80.7262 8.35311ZM74.4097 11.8091C73.8349 12.5603 73.3145 13.0632 72.7729 13.3941C70.115 15.0169 68.0582 13.363 67.4937 12.8203C67.1598 12.0762 66.838 10.2688 71.5441 6.64754C73.3248 7.48316 75.0248 8.4702 76.621 9.59534C75.5506 10.4566 74.8458 11.2424 74.4097 11.8091Z" fill="white"/>
<path d="M66.8359 68.9563C66.0957 67.4403 65.5613 65.6865 65.2484 63.7449C64.6209 59.8549 61.205 57.0312 57.1301 57.0312C50.8453 57.0312 45.728 62.0153 45.6734 68.1605L45.4062 70.5173L46.8283 70.9205C50.1878 71.8749 53.6527 72.3574 57.1318 72.3574C59.9815 72.3574 62.8486 72.0283 65.6544 71.3772L67.778 70.8844L66.8359 68.9563ZM49.1948 67.9727C49.3495 63.814 52.8496 60.4767 57.1301 60.4767C59.4278 60.4767 61.4248 62.1134 61.7746 64.2842C62.012 65.7537 62.3618 67.1405 62.8206 68.431C58.2764 69.201 53.6461 69.0391 49.1948 67.9727Z" fill="white"/>
<path d="M91.8668 66.0615C91.2304 65.3414 90.1194 65.2622 89.3862 65.8859C81.6355 72.455 73.6208 79.248 57.1346 79.248C32.9011 79.248 13.1857 59.9269 13.1857 36.178C13.1857 25.2556 16.6858 15.5182 23.3062 8.01713C23.9409 7.29698 23.8599 6.20818 23.127 5.58798C22.394 4.96434 21.2811 5.04529 20.6464 5.76362C13.4655 13.8986 9.66992 24.4163 9.66992 36.1778C9.66992 61.8268 30.9624 82.6935 57.1348 82.6935C74.9307 82.6935 83.448 75.4749 91.6876 68.4906C92.4206 67.8704 92.5032 66.7816 91.8668 66.0615Z" fill="white"/>
<path d="M26.7341 9.11892L19.7023 2.22779C19.0149 1.55428 17.9039 1.55428 17.2166 2.22779C16.5294 2.9015 16.5294 3.99029 17.2166 4.6638L24.2484 11.5549C24.5912 11.8909 25.0413 12.0597 25.4912 12.0597C25.9414 12.0597 26.3913 11.8909 26.7341 11.5549C27.4216 10.8814 27.4216 9.79243 26.7341 9.11892Z" fill="white"/>
<path d="M95.2929 69.4161L88.2611 62.5247C87.5736 61.8512 86.4626 61.851 85.7754 62.5247C85.0879 63.1984 85.0879 64.2872 85.7754 64.9607L92.8071 71.8519C93.1499 72.1878 93.6001 72.3566 94.05 72.3566C94.5001 72.3566 94.9501 72.1878 95.2929 71.8519C95.9803 71.1784 95.9803 70.0896 95.2929 69.4161Z" fill="white"/>
<path d="M72.9539 93.0312H41.3106C40.3403 93.0312 39.5527 93.8013 39.5527 94.754V101.645C39.5527 102.598 40.3403 103.368 41.3106 103.368H72.9539C73.9242 103.368 74.7118 102.598 74.7118 101.645V94.754C74.712 93.8013 73.9244 93.0312 72.9539 93.0312ZM71.196 99.9224H43.0687V96.4767H71.196V99.9224Z" fill="white"/>
<path d="M71.1975 93.0323C64.4117 93.0323 58.8918 87.621 58.8918 80.9727C58.8918 80.02 58.1042 79.25 57.1339 79.25C56.1636 79.25 55.376 80.02 55.376 80.9727C55.376 87.621 49.856 93.0323 43.0704 93.0323C42.1001 93.0323 41.3125 93.8023 41.3125 94.755C41.3125 95.7077 42.1001 96.4777 43.0704 96.4777H71.1977C72.168 96.4777 72.9556 95.7077 72.9556 94.755C72.9556 93.8023 72.1678 93.0323 71.1975 93.0323ZM53.0042 93.0323C54.7077 91.6832 56.1193 89.9932 57.1337 88.0722C58.1481 89.9932 59.5597 91.6832 61.2632 93.0323H53.0042Z" fill="white"/>
</g>
<defs>
<clipPath id="clip0_903_5653">
<rect width="105.478" height="103.368" fill="white"/>
</clipPath>
</defs>
</svg>
