<svg width="126" height="122" viewBox="0 0 126 122" fill="none" xmlns="http://www.w3.org/2000/svg">
<g clip-path="url(#clip0_758_33306)">
<mask id="mask0_758_33306" style="mask-type:luminance" maskUnits="userSpaceOnUse" x="0" y="0" width="126" height="122">
<path d="M126 0H0V122H126V0Z" fill="white"/>
</mask>
<g mask="url(#mask0_758_33306)">
<path d="M92.1157 117.772C105.248 117.772 115.903 107.124 115.903 93.9992C115.903 80.8747 105.248 70.2266 92.1157 70.2266C78.983 70.2266 68.3281 80.8747 68.3281 93.9992C68.3281 107.124 78.983 117.772 92.1157 117.772Z" fill="#D3C1DE"/>
<path d="M29.6724 54.2914C42.8051 54.2914 53.46 43.6433 53.46 30.5188C53.46 17.3943 42.8051 6.74609 29.6724 6.74609C16.5396 6.74609 5.88477 17.3943 5.88477 30.5188C5.88477 43.6433 16.5396 54.2914 29.6724 54.2914Z" fill="#D3C1DE"/>
<path d="M94.4274 115.829C107.498 115.829 118.091 105.243 118.091 92.1801C118.091 79.1175 107.498 68.5312 94.4274 68.5312C81.3566 68.5312 70.7637 79.1175 70.7637 92.1801C70.7637 105.243 81.3566 115.829 94.4274 115.829Z" fill="#F19130"/>
<path d="M29.1774 53.1805C42.2482 53.1805 52.8411 42.5942 52.8411 29.5317C52.8411 16.4691 42.2482 5.88281 29.1774 5.88281C16.1066 5.88281 5.51367 16.4691 5.51367 29.5317C5.51367 42.5942 16.1066 53.1805 29.1774 53.1805Z" fill="#E25599"/>
<path d="M117.782 8.0274C112.392 2.84777 105.206 0.123816 97.649 0.123816C91.3717 0.123816 85.3215 2.97158 80.3245 6.66543V1.23816H69.2979V57.7808H80.3245V27.4046C80.3245 18.139 88.1504 10.4831 97.649 10.4831C107.147 10.4831 114.973 18.139 114.973 27.4046V57.7808H126V27.4046C126 19.9963 123.047 13.207 117.782 8.0274ZM30.7876 48.6597C19.885 48.6597 11.0265 40.0132 11.0265 29.5301C11.0265 19.047 19.885 10.3799 30.7876 10.3799C41.6903 10.3799 50.5487 19.0264 50.5487 29.5095C50.5487 39.9926 41.6903 48.639 30.7876 48.639M50.5487 7.77977C45.0354 3.34303 38.0973 0 30.7876 0C22.5693 0 14.8879 2.97158 8.9823 8.52267C3.20059 14.1976 0 21.6059 0 29.5095C0 37.4131 3.20059 44.8214 8.9823 50.4963C14.8879 56.0474 22.59 59.0189 30.7876 59.0189C38.0973 59.0189 45.0354 55.6966 50.5487 51.2392V57.7808H61.5752V1.23816H50.5487V7.77977Z" fill="#231F20"/>
<path d="M95.2125 111.62C84.3099 111.62 75.4515 102.973 75.4515 92.4693C75.4515 81.9656 84.3099 73.3397 95.2125 73.3397C106.115 73.3397 114.974 81.9862 114.974 92.4693C114.974 102.952 106.115 111.62 95.2125 111.62ZM114.974 70.7602C109.46 66.3235 102.522 62.9805 95.2125 62.9805C86.9942 62.9805 79.2922 65.9521 73.4072 71.5031C67.6255 77.178 64.4249 84.5864 64.4249 92.4899C64.4249 100.394 67.6255 107.802 73.4072 113.477C79.3128 119.028 87.0149 121.999 95.2125 121.999C102.522 121.999 109.46 118.656 114.974 114.22V120.761H126V64.2186H114.974V70.7602ZM50.0532 71.0079C44.6639 65.8282 37.478 63.1043 29.8999 63.1043C23.6226 63.1043 17.5724 65.9521 12.5754 69.6459V64.2186H1.54883V120.761H12.5754V90.3851C12.5754 81.1195 20.4013 73.4636 29.8999 73.4636C39.3984 73.4636 47.2243 81.1195 47.2243 90.3851V120.761H58.2509V90.3851C58.2509 82.9767 55.2981 76.1875 50.0326 71.0079" fill="#231F20"/>
</g>
</g>
<defs>
<clipPath id="clip0_758_33306">
<rect width="126" height="122" fill="white"/>
</clipPath>
</defs>
</svg>
